<mxfile host="app.diagrams.net" modified="2023-08-10T03:08:51.624Z" agent="Mozilla/5.0 (Windows NT 10.0; Win64; x64) AppleWebKit/537.36 (KHTML, like Gecko) Chrome/115.0.0.0 Safari/537.36 Edg/115.0.1901.200" version="21.6.7" etag="5iRTiui475yimvhep0sa" type="github">
  <diagram name="第 1 页" id="PIeniqU5bwOCqn_3mpyy">
    <mxGraphModel>
      <root>
        <mxCell id="0" />
        <mxCell id="1" parent="0" />
      </root>
    </mxGraphModel>
  </diagram>
</mxfile>
